<?xml version="1.0" encoding="iso-8859-1"?>
<!-- Generator: Adobe Illustrator 19.1.0, SVG Export Plug-In . SVG Version: 6.00 Build 0)  -->
<svg xmlns="http://www.w3.org/2000/svg" xmlns:xlink="http://www.w3.org/1999/xlink" version="1.1" id="Capa_1" x="0px" y="0px" viewBox="0 0 480.077 480.077" style="enable-background:new 0 0 480.077 480.077;" xml:space="preserve" width="512px" height="512px">
<g>
	<path d="M239.382,0.004c-40.58,0.071-81.678,10.441-119.344,32.188   C5.248,98.465-34.08,245.245,32.195,360.035s213.054,154.118,327.844,87.844s154.118-213.054,87.844-327.844   C403.354,42.91,322.474-0.142,239.382,0.004L239.382,0.004z M326.882,27.098c28.83,11.736,54.077,28.731,75,49.469l-83.625,84.656   c-10.065-9.998-22.226-18.198-36.094-23.875C282.164,137.348,326.882,27.098,326.882,27.098z M240.039,139.004   c55.656,0,100.969,45.243,100.969,101.031s-45.312,101.062-100.969,101.062c-55.656,0-100.969-45.274-100.969-101.062   C139.07,184.246,184.382,139.004,240.039,139.004L240.039,139.004z M240.039,149.098c-50.382,0-91.031,40.687-91.031,90.938   c0,50.25,40.649,90.969,91.031,90.969s91.031-40.718,91.031-90.969S290.421,149.098,240.039,149.098L240.039,149.098z    M240.039,208.035c17.673,0,32,14.327,32,32s-14.327,32-32,32s-32-14.327-32-32S222.365,208.035,240.039,208.035z M158.039,365.035   c5.933,0,11.322,0.667,16.156,2s8.971,3.446,12.438,6.312c3.467,2.867,6.133,6.533,8,11s2.812,9.825,2.812,16.094   c0,6-0.946,11.221-2.812,15.688c-1.867,4.467-4.504,8.161-7.938,11.094c-3.433,2.933-7.629,5.158-12.562,6.625   c-4.934,1.467-10.46,2.188-16.594,2.188c-2.8,0-6.079-0.111-9.813-0.344c-3.733-0.233-7.399-0.734-11-1.469v-67.5   c3.601-0.667,7.35-1.111,11.25-1.344C151.876,365.146,155.239,365.035,158.039,365.035L158.039,365.035z M303.945,365.035   c5.933,0,11.322,0.667,16.156,2s8.971,3.446,12.438,6.312c3.467,2.867,6.133,6.533,8,11s2.812,9.825,2.812,16.094   c0,6-0.946,11.221-2.812,15.688c-1.867,4.467-4.504,8.161-7.938,11.094c-3.433,2.933-7.629,5.158-12.562,6.625   c-4.934,1.467-10.46,2.188-16.594,2.188c-2.799,0-6.079-0.111-9.812-0.344s-7.399-0.734-11-1.469v-67.5   c3.601-0.667,7.35-1.111,11.25-1.344C297.782,365.146,301.145,365.035,303.945,365.035z M203.382,365.848h17.188   c1.333,4,2.777,8.304,4.344,12.938s3.179,9.244,4.812,13.844c1.634,4.6,3.217,9.02,4.75,13.219s2.978,7.807,4.312,10.875   c1.265-3.068,2.652-6.676,4.219-10.875s3.179-8.619,4.812-13.219c1.634-4.6,3.246-9.21,4.812-13.844   c1.567-4.634,3.011-8.938,4.344-12.938h16.594c-1.534,4.399-3.313,9.4-5.312,15c-2,5.6-4.194,11.46-6.594,17.594   s-4.927,12.328-7.594,18.594c-2.667,6.266-5.361,12.293-8.094,18.094h-15c-2.734-5.8-5.428-11.827-8.094-18.094   c-2.666-6.266-5.224-12.46-7.625-18.594s-4.593-11.994-6.625-17.594C206.6,375.248,204.849,370.246,203.382,365.848z    M158.851,378.348c-1.066,0-2.179-0.002-3.313,0.031c-1.133,0.034-2.187,0.118-3.188,0.25v43.812   c0.734,0.067,1.565,0.123,2.531,0.156c0.966,0.034,2.136,0.031,3.469,0.031c7.8,0,13.577-1.972,17.344-5.906   s5.656-9.35,5.656-16.281c0-7.267-1.806-12.767-5.406-16.5C172.345,380.208,166.651,378.348,158.851,378.348L158.851,378.348z    M304.726,378.348c-1.066,0-2.148-0.002-3.281,0.031c-1.133,0.034-2.218,0.118-3.219,0.25v43.812   c0.734,0.067,1.596,0.123,2.562,0.156c0.966,0.034,2.105,0.031,3.438,0.031c7.8,0,13.608-1.972,17.375-5.906   s5.625-9.35,5.625-16.281c0-7.267-1.775-12.767-5.375-16.5S312.526,378.348,304.726,378.348z" fill="#D80027"/>
</g>
<g>
</g>
<g>
</g>
<g>
</g>
<g>
</g>
<g>
</g>
<g>
</g>
<g>
</g>
<g>
</g>
<g>
</g>
<g>
</g>
<g>
</g>
<g>
</g>
<g>
</g>
<g>
</g>
<g>
</g>
</svg>
