<?xml version="1.0" encoding="iso-8859-1"?>
<!-- Generator: Adobe Illustrator 19.1.0, SVG Export Plug-In . SVG Version: 6.00 Build 0)  -->
<svg xmlns="http://www.w3.org/2000/svg" xmlns:xlink="http://www.w3.org/1999/xlink" version="1.1" id="Capa_1" x="0px" y="0px" viewBox="0 0 486.522 486.522" style="enable-background:new 0 0 486.522 486.522;" xml:space="preserve" width="512px" height="512px">
<g>
	<g>
		<g>
			<path d="M150.4,178.839c3.1-1,6.7-2.1,10.3-2.1c13.9-1,27.4,1.5,39.8,7.2c6.2,3.1,8.3,2.1,10.3-4.6c2.1-6.7,3.6-13.9,5.7-20.7     c1.5-4.6,0-7.7-4.6-9.8c-7.7-3.6-16-6.2-24.8-7.2c-11.4-1.5-11.4-1.5-11.4-12.9c-0.5-16.5-0.5-16.5-16.5-16c-2.6,0-4.6,0-7.2,0     c-7.2,0.5-8.8,1.5-8.8,9.3c0,3.6,0,6.7,0,10.3c0.5,9.8,0,9.8-9.3,13.4c-22.7,8.8-37.2,24.8-38.2,50.1c-1,22.2,10.8,37.2,29.4,48     c11.4,6.7,24.3,10.3,36.2,15.5c5.2,2.1,9.3,4.6,13.4,7.7c11.9,9.3,9.8,25.3-3.6,31.5c-7.7,3.6-15.5,4.6-23.2,3.6     c-12.4-1-23.8-4.1-35.1-9.8c-6.2-3.1-8.3-2.6-10.3,4.6c-2.1,6.2-3.6,12.4-5.2,18.6c-2.1,8.3-1,10.3,6.7,13.9     c10.3,4.6,21.2,7.2,32,8.8c8.8,1,9.3,1.5,9.3,10.3c0.5,3.6,0.5,7.7,0.5,11.9c0,5.2,2.6,8.3,7.7,8.3c5.7,0,11.9-0.5,17.6-0.5     c4.6,0,7.2-2.6,7.2-7.7c0-5.7,0-10.8-1.5-16c-0.5-5.2,2.1-8.3,7.2-9.8c12.4-3.6,23.2-10.8,31-20.7c6.7-8.3,10.8-17.6,11.9-27.4     c-5.2-9.3-10.3-18.1-15.5-27.4l-13.4-23.8c-1-2.6-2.1-4.6-3.1-7.2c-9.8-5.2-20.1-9.3-30.5-13.4c-5.7-2.6-11.9-5.2-17-9.3     C136.9,197.439,138.5,183.939,150.4,178.839z" fill="#D80027"/>
		</g>
		<g>
			<g>
				<path d="M266.5,448.539c-2.9-2.1-6.9-4.5-10.9-6.8c-3.4-2-6.9-4-10.1-6.2c-8.2-5.4-16.2-10.1-24.1-14H208H35.7      c-0.5,0-0.9-0.1-1.3-0.1v-364.4h0.1c0.4,0,0.8-0.1,1.2-0.1h255.2c0.5,0,0.9,0.1,1.3,0.2v171.2c3.3,4.4,6.6,8.6,9.9,12.7      c4,5.1,8.1,10.1,12,15.3c3.6-1,7.8-1.9,12.4-2.9v-204.4l0,0v-5.4c0-15.9-9.4-29.5-22.7-35.3c-4.4-1.9-9.3-3-14.5-3h-126      l-126.1-0.1c-5.1,0-10,1.1-14.5,3C9.4,14.039,0,27.639,0,43.539v6.9v345.6v46.8c0,21.2,16.6,38.3,37.1,38.3h65.2l0,0h109.9h60.9      c-48.9,0,0,0,0,0h0.2l0,0h17.8c11,0,20.8-5,27.3-12.9c-8.4-2.7-14.1-3.9-14.2-4C294.1,462.339,280.4,458.639,266.5,448.539z       M189.8,456.039c-1.6,3.1-4.8,5.2-8.5,5.2h-35.9c-5.3,0-9.6-4.5-9.6-10c0-1.9,0.5-3.7,1.5-5.3c0.4-0.7,0.8-1.3,1.4-1.8      c1.7-1.8,4.2-2.9,6.8-2.9h35.8c3.7,0,6.9,2.1,8.5,5.2c0.7,1.4,1.2,3,1.2,4.8C190.9,453.039,190.5,454.639,189.8,456.039z" fill="#D80027"/>
			</g>
		</g>
		<g>
			<path d="M484.5,405.039l-7.2-12.9c-2.1-5.2-5.7-12.9-8.3-22.2c-5.2-36.2-24.3-73.3-31.5-86.8c-1.5-3.6-4.6-5.7-8.3-6.7     c-65.6-15.5-123.4,6.7-123.4,6.7l-9.8-12.4c-7.7-10.3-16-20.1-23.8-30.5c-8.8-11.4-17-22.2-25.8-33.1c-6.2-7.7-16.5-9.3-24.3-4.1     c-7.7,5.7-9.8,15-4.6,23.8c22.7,40.3,45.5,80.1,67.1,120.3c2.1,4.6,4.1,9.3,4.6,14.5c1,10.3-0.5,19.1-10.3,15.5     c-11.4-4.1-36.2-16.5-41.8-17c-9.3-1.5-19.1-2.1-28.4,2.6c-4.1,2.1-8.8,7.2-10.3,11.4c-3.1,8.3-1,13.4,7.2,16     c18.6,6.2,36.2,15.5,52.7,26.3c6.2,4.1,15.5,8.8,21.7,13.4c9.3,6.7,18.6,9.8,28.9,11.9c0,0,40.8,8.3,73.9,33.6     c10.8,8.3,25.8,7.7,36.2-0.5l62.5-51.1C486.6,418.939,488.2,411.239,484.5,405.039z" fill="#D80027"/>
		</g>
	</g>
</g>
<g>
</g>
<g>
</g>
<g>
</g>
<g>
</g>
<g>
</g>
<g>
</g>
<g>
</g>
<g>
</g>
<g>
</g>
<g>
</g>
<g>
</g>
<g>
</g>
<g>
</g>
<g>
</g>
<g>
</g>
</svg>
