<?xml version="1.0" encoding="iso-8859-1"?>
<!-- Generator: Adobe Illustrator 19.0.0, SVG Export Plug-In . SVG Version: 6.00 Build 0)  -->
<svg xmlns="http://www.w3.org/2000/svg" xmlns:xlink="http://www.w3.org/1999/xlink" version="1.1" id="Capa_1" x="0px" y="0px" viewBox="0 0 489.9 489.9" style="enable-background:new 0 0 489.9 489.9;" xml:space="preserve" width="512px" height="512px">
<g>
	<g>
		<g>
			<path d="M177.35,113.9h135.6c5.4,0,10.1-4.3,10.1-10.1s-4.3-10.1-10.1-10.1h-135.6c-5.4,0-10.1,4.3-10.1,10.1     S171.85,113.9,177.35,113.9z" fill="#D80027"/>
			<path d="M177.35,192h135.6c5.4,0,10.1-4.3,10.1-10.1c0-5.4-4.3-10.1-10.1-10.1h-135.6c-5.4,0-10.1,4.3-10.1,10.1     C167.15,187.4,171.85,192,177.35,192z" fill="#D80027"/>
			<path d="M177.35,269.8h135.6c5.4,0,10.1-4.3,10.1-10.1s-4.3-10.1-10.1-10.1h-135.6c-5.4,0-10.1,4.3-10.1,10.1     S171.85,269.8,177.35,269.8z" fill="#D80027"/>
			<path d="M177.35,347.5h135.6c5.4,0,10.1-4.3,10.1-10.1c0-5.4-4.3-10.1-10.1-10.1h-135.6c-5.4,0-10.1,4.3-10.1,10.1     S171.85,347.5,177.35,347.5z" fill="#D80027"/>
			<path d="M373.25,0h-256.6c-15.6,0-28.4,12.8-28.4,28.4v433.1c0,15.6,12.8,28.4,28.4,28.4h256.6c15.6,0,28.4-12.8,28.4-28.4V28.4     C401.65,12.8,389.15,0,373.25,0z M249.65,456h-8.9c-5.4,0-10.1-4.3-10.1-10.1c0-5.4,4.3-10.1,10.1-10.1h8.9     c5.4,0,10.1,4.3,10.1,10.1C259.35,451.3,255.05,456,249.65,456z M361.15,397.3h-232.4v-353h232.9L361.15,397.3L361.15,397.3z" fill="#D80027"/>
		</g>
	</g>
</g>
<g>
</g>
<g>
</g>
<g>
</g>
<g>
</g>
<g>
</g>
<g>
</g>
<g>
</g>
<g>
</g>
<g>
</g>
<g>
</g>
<g>
</g>
<g>
</g>
<g>
</g>
<g>
</g>
<g>
</g>
</svg>
