<?xml version="1.0" encoding="iso-8859-1"?>
<!-- Generator: Adobe Illustrator 19.0.0, SVG Export Plug-In . SVG Version: 6.00 Build 0)  -->
<svg version="1.1" id="Layer_1" xmlns="http://www.w3.org/2000/svg" xmlns:xlink="http://www.w3.org/1999/xlink" x="0px" y="0px"
	 viewBox="0 0 314.008 314.008" style="enable-background:new 0 0 314.008 314.008;" xml:space="preserve">
<g>
	<path style="fill:#333E48;" d="M262.186,20c0-11-9-20-20-20H71.822c-11,0-20,9-20,20v274.008c0,11,9,20,20,20h170.363
		c11,0,20-9,20-20V20H262.186z"/>
	<rect x="74.236" y="36.307" style="fill:#E8E8E8;" width="165.536" height="228.197"/>
	<g>
		<rect x="91.337" y="142.324" style="fill:#1E252B;" width="131.334" height="10"/>
		<rect x="109.469" y="67.504" style="fill:#1E252B;" width="95.07" height="15"/>
		<rect x="91.337" y="165.161" style="fill:#1E252B;" width="109.334" height="10"/>
		<rect x="91.337" y="187.998" style="fill:#1E252B;" width="131.334" height="10"/>
		<rect x="91.337" y="210.834" style="fill:#1E252B;" width="131.334" height="10"/>
		<rect x="91.337" y="233.671" style="fill:#1E252B;" width="81.334" height="10"/>
	</g>
	<rect x="129.058" y="283.008" style="fill:#FFFFFF;" width="55.891" height="8.499"/>
</g>
<g>
</g>
<g>
</g>
<g>
</g>
<g>
</g>
<g>
</g>
<g>
</g>
<g>
</g>
<g>
</g>
<g>
</g>
<g>
</g>
<g>
</g>
<g>
</g>
<g>
</g>
<g>
</g>
<g>
</g>
</svg>
