<?xml version="1.0" encoding="iso-8859-1"?>
<!-- Generator: Adobe Illustrator 16.0.0, SVG Export Plug-In . SVG Version: 6.00 Build 0)  -->
<!DOCTYPE svg PUBLIC "-//W3C//DTD SVG 1.1//EN" "http://www.w3.org/Graphics/SVG/1.1/DTD/svg11.dtd">
<svg xmlns="http://www.w3.org/2000/svg" xmlns:xlink="http://www.w3.org/1999/xlink" version="1.1" id="Capa_1" x="0px" y="0px" width="512px" height="512px" viewBox="0 0 795.429 795.429" style="enable-background:new 0 0 795.429 795.429;" xml:space="preserve">
<g>
	<path d="M97.767,108.463V686.96c0,59.815,48.654,108.469,108.467,108.469h382.958c59.811,0,108.469-48.651,108.469-108.469V108.463   C697.662,48.652,649.003,0,589.193,0H206.234C146.421,0,97.767,48.652,97.767,108.463z M251.959,755.885   c-18.095,0-32.766-14.67-32.766-32.769c0-18.093,14.671-32.767,32.766-32.767c18.096,0,32.767,14.674,32.767,32.767   C284.726,741.215,270.056,755.885,251.959,755.885z M423.701,755.885h-51.974c-18.094,0-32.768-14.67-32.768-32.769   c0-18.093,14.674-32.767,32.768-32.767h51.974c18.096,0,32.768,14.674,32.768,32.767   C456.466,741.215,441.796,755.885,423.701,755.885z M543.468,755.885c-18.096,0-32.768-14.67-32.768-32.769   c0-18.093,14.672-32.767,32.768-32.767c18.098,0,32.77,14.674,32.77,32.767C576.236,741.215,561.564,755.885,543.468,755.885z    M625.347,108.463v544.075H170.078V108.463c0-19.945,16.216-36.152,36.156-36.152h382.958   C609.132,72.311,625.347,88.518,625.347,108.463z" fill="#D80027"/>
	<rect x="206.41" y="137.84" width="382.605" height="36.156" fill="#D80027"/>
	<rect x="206.41" y="210.152" width="382.605" height="36.157" fill="#D80027"/>
	<rect x="206.41" y="282.466" width="382.605" height="36.156" fill="#D80027"/>
	<rect x="206.41" y="354.778" width="382.605" height="36.154" fill="#D80027"/>
	<rect x="206.41" y="427.091" width="382.605" height="36.157" fill="#D80027"/>
	<rect x="206.41" y="499.403" width="382.605" height="36.153" fill="#D80027"/>
	<rect x="206.41" y="571.716" width="244.548" height="36.157" fill="#D80027"/>
</g>
<g>
</g>
<g>
</g>
<g>
</g>
<g>
</g>
<g>
</g>
<g>
</g>
<g>
</g>
<g>
</g>
<g>
</g>
<g>
</g>
<g>
</g>
<g>
</g>
<g>
</g>
<g>
</g>
<g>
</g>
</svg>
